<?xml version="1.0" encoding="UTF-8"?><svg id="Layer_1" xmlns="http://www.w3.org/2000/svg" viewBox="0 0 400 400"><defs><style>.cls-1{fill:#fff;}.cls-2{fill:#efefef;stroke:#ccc;stroke-width:2px;}.cls-2,.cls-3{stroke-linecap:round;stroke-linejoin:round;}.cls-3{fill:#ccc;stroke:#999;}.cls-3,.cls-4{stroke-width:.2px;}.cls-4{fill:none;stroke:#000;stroke-dasharray:0 0 .6 .3;}</style></defs><circle class="cls-1" cx="200" cy="200" r="194.73"/><path d="M200,9.27c105.36,.07,190.72,85.54,190.66,190.9-.05,76.58-45.89,145.71-116.42,175.57-97.26,40.52-208.96-5.47-249.48-102.73C-15.48,176.42,29.58,65.45,125.76,24.26c23.49-9.94,48.74-15.04,74.24-14.99m0-8c-109.75,0-198.73,88.98-198.73,198.73s88.98,198.73,198.73,198.73,198.73-89,198.73-198.73S309.75,1.27,200,1.27Z"/><path class="cls-2" d="M200.08,290.09h-.25s-47.1,7.06-68.9,7.06c-24.93,0-48.12-16.8-48.12-16.8-.87-4-7.9-2.79-9.67-13.46-1.24-7.51,19.11-42.74,38.38-91.32,.93,0,.12-5.48,.81-3.42,1.16,5,23.63,17.59,44.91,44.38,10.91,13.72,31.33,38.6,42.84,38.63h1.54c11.5,0,31.93-24.91,42.83-38.63,21.29-26.79,43.75-39.41,44.92-44.38,.68-2.06-.44,1,.49,1,1.34,3.36,2.17,6.78,3.53,10.13,5.32,13.17,12.09,24.56,17.56,37.67,4.08,9.77,8.21,19.53,11.89,29.47,2.3,6.22,6,14.32,3.71,20.89l-1.91,5.49c-.31,.98-.71,1.92-1.21,2.82-1.33,2.19-3.67,3.54-6,4.67-1.8,.89-3.64,1.71-5.5,2.46-3.48,1.39-7,2.34-10.63,3.39-3.07,.89-6,2.36-9.08,3.35-6.93,2.33-14.18,3.56-21.49,3.66-21.8,0-68.91-7.06-68.91-7.06h-1.74Z"/><path d="M328,272.34l2.89-6.28-6.27-16.26-32.62-74.29c-1.32-5.67-6.71-42.49-10.78-72.44-3.22-23.65-5.02-43.95-5.02-43.95l-7.05-1.49s12.66,100.56,17.7,121.37c0,0,39.29,88.16,41.15,93.34Z"/><path class="cls-3" d="M200.84,286.76s-44.37,6.13-66.14,6.14c-24.88,0-59.13-14-59.13-14l1.43,7.59s32.88,14,57.76,14c21.77,0,66.14-6.14,66.14-6.14,0,0,44.37,6.12,66.14,6.14,24.87,0,57.76-14,57.76-14l1.38-7.55s-34.26,14-59.14,14c-21.76,0-66.14-6.14-66.14-6.14l-.06-.04Z"/><polygon points="320.18 273.43 329.51 268.86 327.08 280.31 318.19 284.42 320.18 273.43"/><polygon points="82.12 273.31 72.39 266.85 75.72 286.36 84.11 284.3 82.12 273.31"/><polygon points="269.16 289.48 124.37 289.51 75.72 286.36 74.91 280.4 268.82 283.47 269.16 289.48"/><polygon points="269.09 283.74 123.69 283.53 73.44 273.3 72.39 266.85 124.92 277.14 269.21 277.24 269.09 283.74"/><line class="cls-4" x1="124.46" y1="277.03" x2="124.37" y2="289.51"/><polygon points="265.75 289.48 277.32 289.51 325.58 286.28 327.08 280.31 268.82 283.31 265.75 289.48"/><polygon points="268.89 283.57 278 283.53 328.54 273.56 329.89 267.06 276.78 277.14 268.45 277.24 268.89 283.57"/><line class="cls-4" x1="277.56" y1="277.26" x2="277.47" y2="289.75"/><path d="M73.74,272.34l-2.05-8.33,5.43-14.21,32.54-74.29c1.33-5.67,6.28-42.88,10.35-72.83,3.22-23.64,4.32-44,4.32-44l7-1.58s-11.74,100.83-16.48,121.9c0,0-39.3,88.16-41.11,93.34"/></svg>