<svg id="Layer_1" data-name="Layer 1" xmlns="http://www.w3.org/2000/svg" viewBox="0 0 400 400"><defs><style>.cls-1{fill:#fff;}.cls-2{fill:#231f20;}</style></defs><circle class="cls-1" cx="200" cy="200" r="194.73" transform="translate(-82.84 200) rotate(-45)"/><path d="M200,9.27a190.78,190.78,0,0,1,74.24,366.47A190.78,190.78,0,0,1,125.76,24.26,189.44,189.44,0,0,1,200,9.27m0-8C90.25,1.27,1.27,90.25,1.27,200S90.25,398.73,200,398.73s198.73-89,198.73-198.73S309.75,1.27,200,1.27Z"/><path class="cls-2" d="M202.45,298.23h19s-.94-116.07,124.77-131.73l-8.15-23.34c-31.47,5.34-100.26,6-135.65,6.93h0c-35.4-.91-109-1.59-140.49-6.93L53.78,163c135,19.57,129.13,135.2,129.13,135.2h19.54Z"/></svg>