<svg id="Layer_1" data-name="Layer 1" xmlns="http://www.w3.org/2000/svg" viewBox="0 0 400 400"><defs><style>.cls-1{fill:#fff;}.cls-2{isolation:isolate;font-size:140px;font-family:Brown-Regular, Brown;}.cls-3{letter-spacing:-0.02em;}</style></defs><circle class="cls-1" cx="200" cy="200" r="194.73"/><path d="M200,9.27c105.36.07,190.72,85.54,190.66,190.9A190.78,190.78,0,0,1,274.24,375.74C177,416.26,65.28,370.27,24.76,273c-40.24-96.59,4.82-207.56,101-248.75A189.55,189.55,0,0,1,200,9.27m0-8C90.25,1.27,1.27,90.25,1.27,200S90.25,398.73,200,398.73s198.73-89,198.73-198.73S309.75,1.27,200,1.27Z"/><text class="cls-2" transform="translate(79.95 254.88)">D-<tspan class="cls-3" x="164.5" y="0">F</tspan></text></svg>