<svg id="Layer_1" data-name="Layer 1" xmlns="http://www.w3.org/2000/svg" viewBox="0 0 400 400"><defs><style>.cls-1{fill:#fff;}.cls-2{fill:#efefef;stroke:#ccc;stroke-linecap:round;stroke-linejoin:round;stroke-width:2px;}.cls-3{fill:#231f20;}</style></defs><circle class="cls-1" cx="200.27" cy="200" r="194.73"/><path d="M200.27,9.27a190.78,190.78,0,0,1,74.24,366.47A190.78,190.78,0,0,1,126,24.26a189.44,189.44,0,0,1,74.24-15m0-8C90.52,1.27,1.54,90.25,1.54,200s89,198.73,198.73,198.73S399,309.75,399,200,310,1.27,200.27,1.27Z"/><path class="cls-2" d="M206.76,213.77a46.68,46.68,0,0,0,5.17-1c30.85-.69,55.22-2.46,55.22-2.46,45.17-3.45,67.93,13.76,67.93,13.76h0c.06.37-5.29,65.21-5.82,64.73,0,0-28.73,10.26-54.13,10.26-22.21,0-54.9-5-72.29-6.24,0,0-48,7.2-70.22,7.2-25.4,0-53.94-12.91-53.94-12.91-.53.48-6.07-62.67-6-63,0,0,22.76-17.21,67.94-13.76,0,0,25.37,0,55.21,2.46a47.15,47.15,0,0,0,5.17,1Z"/><path class="cls-3" d="M178.44,294.62s-71.68,1.6-100.3-7.49l-6.47-63S107,269.71,177.74,270.45H204l27.45-.16c70.09-.74,104.88-46.2,104.88-46.2l-6.41,63c-28.35,9.09-99.16,7.49-99.16,7.49Z"/><path class="cls-3" d="M204.76,67.33c-10.38,0-38.15,3.36-43.24,5.82-28.74,38-30.76,79.42-36.75,117.71l-6.89-.14c1.88-12.13,10-93.12,42-121.63,1.44-1.28,18.1-7,44.85-7s42.53,5.8,44,7.09c32.08,28.5,39.48,109.45,41.37,121.58l-7.64-.38c-6-38.29-8-79.7-36.74-117.71C240.63,70.18,215.15,67.33,204.76,67.33Z"/></svg>