<svg id="Layer_1" data-name="Layer 1" xmlns="http://www.w3.org/2000/svg" viewBox="0 0 400 400"><defs><style>.cls-1{fill:#fff;}.cls-2{fill:#292728;}</style></defs><circle class="cls-1" cx="200" cy="200" r="194.73" transform="translate(-82.84 200) rotate(-45)"/><path d="M200,9.27a190.78,190.78,0,0,1,74.24,366.47A190.78,190.78,0,0,1,125.76,24.26,189.44,189.44,0,0,1,200,9.27m0-8C90.25,1.27,1.27,90.25,1.27,200S90.25,398.73,200,398.73s198.73-89,198.73-198.73S309.75,1.27,200,1.27Z"/><path class="cls-2" d="M344.84,157.78C337.68,161,316,201.31,316,201.31s-29.31,67.74-82.63,103.13c0,0-11.61,4.81-28.44,4.87A87.06,87.06,0,0,1,174.87,304s-42.36-18.08-79-102.17c0,0-19.12-40.72-29-43.54l8.35-26.53s69.88,7.83,130.14,7.83,130.12-7.83,130.12-7.83Z"/></svg>