<svg id="Layer_1" data-name="Layer 1" xmlns="http://www.w3.org/2000/svg" viewBox="0 0 400 400"><defs><style>.cls-1{fill:#fff;}.cls-2{fill:#221f1f;fill-rule:evenodd;}</style></defs><circle class="cls-1" cx="200" cy="200" r="194.73" transform="translate(-82.84 200) rotate(-45)"/><path d="M200,9.27a190.78,190.78,0,0,1,74.24,366.47A190.78,190.78,0,0,1,125.76,24.26,189.44,189.44,0,0,1,200,9.27m0-8C90.25,1.27,1.27,90.25,1.27,200S90.25,398.73,200,398.73s198.73-89,198.73-198.73S309.75,1.27,200,1.27Z"/><path class="cls-2" d="M340.72,140.15c-9.5.84-63,5.23-137.89,4.72-79.68-.48-129.16-4.46-138.53-5.24l-1.89,8.6s51.62,4.68,140.42,5.21c82.83.56,139.41-4.86,139.41-4.86Z"/><path class="cls-2" d="M342.05,148.21c3.63,14.31,3.67,35.37,3.67,35.37s-46.92,12.22-82,61.26c0,0-30.66,46.88-32,51.52-5.65,1.66-23.65,1.82-29.79,1.82a205.79,205.79,0,0,1-28.37-1.82s-6.18-19.12-38.44-58.27c-23.86-27.44-34.15-34.65-77.26-54.15,0,0,.72-21.78,4.36-36.08,0,0,51.62,4.68,140.42,5.21C285.47,153.63,342.05,148.21,342.05,148.21Z"/></svg>